# xmcd CD database file
#
# Track frame offsets:
#	150
#	16322
#	35993
#	56923
#	71167
#	90482
#	107486
#	123101
#	138450
#	150786
#	167205
#	184087
#	193840
#	209529
#	229752
#	241496
#	271710
#
# Disc length: 4021 seconds
#
# Revision: 1
# Processed by: cddbd v1.5.2PL0 Copyright (c) Steve Scherf et al.
# Submitted via: CDex 1.51
#
DISCID=ed0fb311
DTITLE=Nouvelle Vague - Couleurs sur Paris
DYEAR=2010
DGENRE=New Age
TTITLE0=Coeur de Pirate - Voilà les anges
TTITLE1=Helena Noguerra and Louis Ronan Choisy - L'aventurier
TTITLE2=Vanessa Paradis - Week-end à Rome
TTITLE3=Camille - Putain Putain
TTITLE4=Adrienne Pauly - Marcia Baïla
TTITLE5=Julien Doré - Anne cherchait l'amour
TTITLE6=Yelle - Ophélie
TTITLE7=Charlie Winston - So young but so cold
TTITLE8=Soko - Sansy Sandy
TTITLE9=Olivia Ruiz - Mala vida
TTITLE10=Emily Loizeau - Où veut-tu qu'je r'garde
TTITLE11=Hugh Coltman - Amoureux solitaires
TTITLE12=Cocoon - 2 people in a room
TTITLE13=Mareva Galanter - Sur ma mob
TTITLE14=Mélanie Pain - Déréglée
TTITLE15=Coralie Clément - Je suis déjà parti
TTITLE16=DATA
EXTD=YEAR: 2010
EXTT0=
EXTT1=
EXTT2=
EXTT3=
EXTT4=
EXTT5=
EXTT6=
EXTT7=
EXTT8=
EXTT9=
EXTT10=
EXTT11=
EXTT12=
EXTT13=
EXTT14=
EXTT15=
EXTT16=
PLAYORDER=
